<?xml version="1.0" encoding="UTF-8"?>
<svg width="1200pt" height="1200pt" version="1.1" viewBox="0 0 1200 1200" xmlns="http://www.w3.org/2000/svg">
 <path d="m496.55 682.76c0.097657-57.176-33.512-109.04-85.738-132.31-52.227-23.273-113.26-13.582-155.71 24.723l219.93 183.31c13.992-22.785 21.438-48.988 21.516-75.727z"/>
 <path d="m206.9 993.1c0 11.43-9.2656 20.691-20.691 20.691s-20.691-9.2617-20.691-20.691c0-11.426 9.2656-20.688 20.691-20.688s20.691 9.2617 20.691 20.688"/>
 <path d="m517.24 972.41c-11.344 0.003907-20.57 9.1445-20.68 20.488s8.9336 20.66 20.277 20.887c11.344 0.22656 20.75-8.7266 21.09-20.066v-0.62109c-0.03125-11.41-9.2773-20.652-20.688-20.688z"/>
 <path d="m165.52 186.21h372.41v165.52h-372.41z"/>
 <path d="m600 103.45h-496.55c-11.414 0.03125-20.656 9.2773-20.691 20.688v951.73c0.035157 11.41 9.2773 20.656 20.691 20.688h496.55c11.414-0.03125 20.656-9.2773 20.691-20.688v-951.73c-0.035156-11.41-9.2773-20.656-20.691-20.688zm-413.79 951.72c-34.281 0-62.07-27.789-62.07-62.07 0-34.277 27.789-62.066 62.07-62.066s62.07 27.789 62.07 62.066c-0.10156 34.238-27.832 61.969-62.07 62.07zm165.52-558.62c102.84 0 186.21 83.367 186.21 186.21 0 102.84-83.367 186.21-186.21 186.21-102.84 0-186.21-83.367-186.21-186.21 0.15625-102.77 83.434-186.05 186.21-186.21zm-186.21-41.379c0.035156-11.41 9.2773-20.656 20.691-20.688h62.07c11.426 0 20.688 9.2617 20.688 20.688s-9.2617 20.691-20.688 20.691h-62.07c-11.414-0.035156-20.656-9.2773-20.691-20.691zm268.97 0c0.03125-11.41 9.2773-20.656 20.688-20.688h62.07c11.426 0 20.688 9.2617 20.688 20.688s-9.2617 20.691-20.688 20.691h-62.07c-11.41-0.035156-20.656-9.2773-20.688-20.691zm141.1 558.62c-8.6836 24.785-32.082 41.379-58.344 41.379-26.266 0-49.66-16.594-58.344-41.379h-48.828c-10.078 28.5-39.223 45.598-69.016 40.484-29.797-5.1094-51.574-30.945-51.574-61.176 0-30.227 21.777-56.062 51.574-61.172 29.793-5.1133 58.938 11.984 69.016 40.484h48.828c8.6836-24.785 32.078-41.379 58.344-41.379 26.262 0 49.66 16.594 58.344 41.379 4.9648 13.348 4.9648 28.031 0 41.379zm3.7227-641.38c-0.03125 11.414-9.2773 20.656-20.688 20.688h-413.79c-11.414-0.03125-20.656-9.2734-20.691-20.688v-206.9c0.035156-11.41 9.2773-20.652 20.691-20.688h413.79c11.41 0.035156 20.656 9.2773 20.688 20.688z"/>
 <path d="m351.72 827.59c35.703-0.042969 70.129-13.309 96.621-37.242l-219.93-183.31c-27.527 44.652-28.723 100.71-3.125 146.49 25.602 45.785 73.98 74.125 126.43 74.059z"/>
 <path d="m372.41 993.1c0 11.43-9.2617 20.691-20.691 20.691-11.426 0-20.688-9.2617-20.688-20.691 0-11.426 9.2617-20.688 20.688-20.688 11.43 0 20.691 9.2617 20.691 20.688"/>
 <path d="m1179.3 351.72v-41.379c-0.023438-22.84-18.535-41.352-41.379-41.379v-144.83c0-11.426-9.2617-20.688-20.688-20.688-11.426 0-20.691 9.2617-20.691 20.688v144.83c-22.84 0.027344-41.352 18.539-41.379 41.379v41.379c-11.426 0-20.688 9.2656-20.688 20.691 0 11.426 9.2617 20.688 20.688 20.688v310.35c0.082031 26.215 16.652 49.543 41.379 58.254v65.883c-0.085937 79.949-64.879 144.74-144.83 144.83h-90.207c43.973-35.207 69.555-88.496 69.52-144.83v-65.883c24.727-8.707 41.297-32.039 41.379-58.254v-310.35c11.426 0 20.688-9.2617 20.688-20.688 0-11.426-9.2617-20.691-20.688-20.691v-41.379c-0.027343-22.84-18.539-41.352-41.379-41.379v-144.83c0-11.426-9.2656-20.688-20.691-20.688s-20.688 9.2617-20.688 20.688v144.83c-22.844 0.027344-41.355 18.539-41.379 41.379v41.379c-11.43 0-20.691 9.2656-20.691 20.691 0 11.426 9.2617 20.688 20.691 20.688v310.35c0.078125 26.215 16.648 49.543 41.379 58.254v65.883c-0.089844 79.949-64.879 144.74-144.83 144.83h-41.379v-889.66c-0.10156-34.238-27.832-61.969-62.07-62.066h-579.31c-34.238 0.097656-61.969 27.828-62.07 62.066v1034.5c0.10156 34.238 27.832 61.969 62.07 62.066h579.31c34.238-0.097656 61.969-27.828 62.07-62.066v-103.45h248.27c102.78-0.15625 186.05-83.434 186.21-186.21v-65.883c24.73-8.707 41.301-32.039 41.379-58.254v-310.35c11.43 0 20.691-9.2617 20.691-20.688 0-11.426-9.2617-20.691-20.691-20.691zm-289.65-41.379h41.379v41.379h-41.379zm41.379 82.758v310.35c0 11.426-9.2656 20.688-20.691 20.688s-20.688-9.2617-20.688-20.688v-310.35zm-268.96 682.76c-0.10156 34.238-27.832 61.969-62.07 62.066h-496.55c-34.238-0.097657-61.969-27.828-62.07-62.066v-951.73c0.10156-34.238 27.832-61.969 62.07-62.066h496.55c34.238 0.097657 61.969 27.828 62.07 62.066zm434.48-765.52h41.379v41.379h-41.379zm41.379 393.11c0 11.426-9.2617 20.688-20.688 20.688-11.426 0-20.691-9.2617-20.691-20.688v-310.35h41.379z"/>
</svg>
